<svg xmlns="http://www.w3.org/2000/svg" viewBox="0 0 320.5 320.5"><defs><style>.cls-1{fill:#fec743;}.cls-2{fill:#d38700;}.cls-3{fill:#293f50;}.cls-4{fill:#faaf6d;}.cls-5{fill:#d9d9d9;}.cls-6{fill:#388686;}</style></defs><g id="Calque_2" data-name="Calque 2"><g id="Calque_1-2" data-name="Calque 1"><circle class="cls-1" cx="160.25" cy="160.25" r="160.25"/><circle class="cls-2" cx="160.25" cy="160.25" r="132.46"/><rect class="cls-3" x="143.7" y="146.45" width="36.02" height="10.52" rx="5.26"/><path class="cls-4" d="M93.35,238.67l29.57-48.42a8.49,8.49,0,0,1,12.34-2.35l8.48,6.37a8.63,8.63,0,0,0,11-.54,5.52,5.52,0,0,1,7.39-.07l16,14.11a11.58,11.58,0,0,0,14.47.67l5.79-4.22a8.49,8.49,0,0,1,12.23,2.43L230,238.19a8.54,8.54,0,0,1-7.29,13H100.35a8.21,8.21,0,0,1-7-12.49Zm52.34-55.36L139.13,178a8,8,0,0,1,5.07-14.29h35.46a8.46,8.46,0,0,1,7.21,4l10,16.15a8.48,8.48,0,0,1-2.35,11.43l-3.72,2.59a8.48,8.48,0,0,1-10.46-.58L164.11,183a8.5,8.5,0,0,0-11.36.11A5.42,5.42,0,0,1,145.69,183.31Z"/><path class="cls-5" d="M171.21,118.54c0,16.1-14.15,29.35-31.87,29.35s-31.87-13.25-31.87-29.35,14.15-29.36,31.87-29.36S171.21,102.44,171.21,118.54Z"/><path class="cls-5" d="M149.84,79.56c0,10.64-9.37,19.47-21.19,19.47s-21.18-8.83-21.18-19.47,9.37-19.48,21.18-19.48S149.84,68.91,149.84,79.56Z"/><path class="cls-3" d="M171.21,52.66c0,4.49-4,8.33-9.13,8.33s-9.14-3.84-9.14-8.33,4-8.33,9.14-8.33S171.21,48.17,171.21,52.66Z"/><path class="cls-6" d="M196.62,130.29c0,12-10.6,22-23.93,22s-23.93-10-23.93-22,10.59-22,23.93-22S196.62,118.24,196.62,130.29Z"/><path class="cls-3" d="M221.59,98.65c0,16.52-13.92,30-31.22,30s-31.22-13.5-31.22-30,13.92-30,31.22-30S221.59,82.12,221.59,98.65Z"/><path class="cls-6" d="M127.32,104.79c0,10-8.4,18.14-18.88,18.14s-18.88-8.18-18.88-18.14S98,86.65,108.44,86.65,127.32,94.82,127.32,104.79Z"/><path d="M151,238.1c0,.93-.57,1.39-1.71,1.39s-1.72-.46-1.72-1.39v-7.74L141.05,218a1.81,1.81,0,0,1-.17-.79,1.34,1.34,0,0,1,1-1.25h0a3.25,3.25,0,0,1,1-.23,1.27,1.27,0,0,1,1.17.76l5.29,9.94c.38-.74.8-1.52,1.25-2.36s.89-1.71,1.33-2.58.93-1.74,1.37-2.59.87-1.66,1.28-2.41a2.52,2.52,0,0,1,.49-.56,1.25,1.25,0,0,1,.7-.2,2.65,2.65,0,0,1,1,.23h0a1.4,1.4,0,0,1,1,1.28,2.64,2.64,0,0,1,0,.38,1.37,1.37,0,0,1-.14.38l-.67,1.28c-.25.5-.62,1.21-1.11,2.12l-1.83,3.52c-.76,1.43-1.72,3.28-2.91,5.55ZM179,216a5.65,5.65,0,0,1,2,.44,1.51,1.51,0,0,1,1,1.54v20c0,.93-.58,1.39-1.72,1.39s-1.72-.46-1.72-1.39V223.09l-.84-.08-1.16,3.78-3.49,11.62a1.41,1.41,0,0,1-1.57,1,1.87,1.87,0,0,1-1-.29,1.29,1.29,0,0,1-.55-.75l-2.1-6.78c-.42-1.33-.85-2.69-1.27-4.07s-.9-2.93-1.4-4.62l-.84.12v15c0,.93-.57,1.39-1.72,1.39S161,239,161,238V218a1.55,1.55,0,0,1,1-1.54,5.12,5.12,0,0,1,2.07-.41,3.6,3.6,0,0,1,.9.12,3.28,3.28,0,0,1,.87.34,2.46,2.46,0,0,1,.73.56,2.12,2.12,0,0,1,.49.75l4.57,15.56c.33-1.15.68-2.39,1-3.72s.75-2.7,1.14-4.08.76-2.73,1.13-4.07.75-2.61,1.08-3.77a2.13,2.13,0,0,1,.49-.73,2.7,2.7,0,0,1,.73-.52,3.06,3.06,0,0,1,.84-.35A3.6,3.6,0,0,1,179,216Z"/></g></g></svg>